<?xml version="1.0" encoding="utf-8"?>
<!-- Generator: Adobe Illustrator 22.1.0, SVG Export Plug-In . SVG Version: 6.00 Build 0)  -->
<svg version="1.1" id="Layer_1" xmlns="http://www.w3.org/2000/svg" xmlns:xlink="http://www.w3.org/1999/xlink" x="0px" y="0px"
	 viewBox="0 0 161.2 72.2" style="enable-background:new 0 0 161.2 72.2;" xml:space="preserve">
<style type="text/css">
	.st0{fill:#0A2240;}
	.st1{fill:#C10230;}
</style>
<g>
	<g>
		<path class="st0" d="M9.6,64.7c-2.1,0-3.9-0.2-5.5-0.8c-1.5-0.6-2.9-1.5-4.2-2.8l2.8-2.7c0.9,0.9,2,1.6,3.2,2
			C7,60.8,8.3,61,9.7,61c1.8,0,3.2-0.4,4.2-1.1c0.9-0.7,1.5-1.8,1.5-3s-0.2-2.1-0.8-2.6c-0.5-0.5-1.1-0.8-1.4-0.9
			c-0.5-0.2-1.1-0.4-1.9-0.5l-3.3-0.6c-2.2-0.4-4-1.1-5.3-2.2C1.5,49,1,47.2,1,45c0-2.5,0.8-4.3,2.5-5.8c1.6-1.5,3.9-2.2,6.7-2.2
			c3.4,0,6.3,1.1,8.5,3.2l-2.7,2.6c-0.8-0.8-1.6-1.3-2.7-1.6c-0.9-0.4-2.1-0.5-3.3-0.5c-1.5,0-2.8,0.4-3.6,1.2
			c-0.9,0.8-1.3,1.9-1.3,3c0,1.1,0.4,1.9,1.1,2.6c0.7,0.6,1.8,1.1,3,1.3l3.2,0.5c1.3,0.2,2.2,0.5,3,0.7c0.8,0.4,1.6,0.9,2.7,1.9
			c1.1,0.9,1.5,2.6,1.5,5c0,2.5-0.9,4.4-2.7,5.8C15,64,12.5,64.7,9.6,64.7z"/>
		<path class="st0" d="M30.7,64.7c-2.5,0-4.6-0.8-6.2-2.5c-1.6-1.6-2.5-4.1-2.5-7.6c0-3.4,0.8-6,2.5-7.5c1.6-1.6,3.7-2.5,6.2-2.5
			c1.4,0,2.6,0.2,3.5,0.6c0.9,0.5,2,1.2,2.9,2.1L34.4,50c-1.2-1.3-2.3-1.9-3.7-1.9c-1.5,0-2.7,0.6-3.5,1.6s-1.3,2.7-1.3,4.9
			s0.4,3.9,1.3,4.9c0.8,1.1,2,1.6,3.5,1.6c0.8,0,1.4-0.1,2-0.4c0.5-0.2,1.1-0.7,1.8-1.4l2.7,2.6C35.3,63.8,33.2,64.7,30.7,64.7z"/>
		<path class="st0" d="M52,64.5V52.6c0-1.4-0.4-2.5-1.1-3.2c-0.7-0.7-1.6-1.1-2.8-1.1c-1.2,0-2.1,0.4-2.8,1.1
			c-0.7,0.7-1.2,1.8-1.2,3.2v11.9h-4V37.1H44V47c1.4-1.4,3-2.2,5-2.2c2.1,0,3.7,0.7,5,2c1.2,1.3,1.8,3,1.8,5.3v12.6H52V64.5z"/>
		<path class="st0" d="M70.8,64.5v-1.8c-0.7,0.7-1.5,1.3-2.2,1.5c-0.7,0.2-1.8,0.5-2.9,0.5c-2.3,0-4-0.6-5.1-1.6
			c-1.1-1.2-1.6-2.6-1.6-4.2c0-1.6,0.6-3,1.8-4.1c1.2-1.1,2.8-1.5,5-1.5h5.1v-1.4c0-1.3-0.4-2.2-1.1-2.8c-0.7-0.6-1.8-0.9-3.3-0.9
			c-1.1,0-1.9,0.1-2.6,0.4c-0.6,0.2-1.2,0.8-1.8,1.5l-2.6-2.5c0.9-1.1,1.9-1.8,2.9-2.2c1.1-0.5,2.5-0.6,4.1-0.6
			c5.4,0,8.1,2.2,8.1,6.7v13.1H70.8z M70.8,55.9h-4.6c-2.3,0-3.5,0.9-3.5,2.8c0,1.9,1.2,2.8,3.6,2.8c0.9,0,1.6-0.1,2.1-0.2
			c0.5-0.1,1.1-0.5,1.5-0.9c0.6-0.5,0.8-1.5,0.8-2.8V55.9z"/>
		<path class="st0" d="M90.3,64.5v-2.1c-0.7,0.8-1.4,1.4-2.2,1.8c-0.8,0.4-1.8,0.5-2.9,0.5c-0.9,0-1.9-0.1-2.7-0.5
			c-0.8-0.4-1.6-0.8-2.3-1.5c-0.7-0.7-1.2-1.8-1.5-3.2c-0.4-1.4-0.5-3-0.5-4.8c0-2.5,0.2-4.2,0.6-5.4c0.4-1.2,1.1-2.2,2-3.2
			c0.9-0.9,2.3-1.4,4.4-1.4c1.1,0,2.1,0.1,2.9,0.5c0.8,0.4,1.5,0.9,2.2,1.8v-9.8h3.9v27.4H90.3z M86.2,48.3c-1.6,0-2.7,0.6-3.3,1.8
			c-0.6,1.2-0.8,2.7-0.8,4.8c0,2.1,0.2,3.6,0.8,4.8c0.6,1.2,1.6,1.6,3.3,1.6s2.7-0.6,3.3-1.6c0.6-1.2,0.8-2.7,0.8-4.8
			c0-2.1-0.2-3.6-0.8-4.8C88.9,48.8,87.9,48.3,86.2,48.3z"/>
	</g>
	<g>
		<path class="st1" d="M109.3,36L109.3,36l-11-11v-0.1v-1.4c0-0.1,0.1-0.1,0.1-0.1h6.8h0.1l12.3,12.3v0.1l-0.1,0.1h-8.2V36z
			 M145.2,50.8l13.3,13.3v0.1l-0.1,0.1h-2.7h-0.1l-5.3-5.3h-1.2H149l-8.1-8.1v-0.1l0.1-0.1L145.2,50.8
			C145.1,50.7,145.2,50.7,145.2,50.8z"/>
		<path class="st0" d="M155.7,42.1L155.7,42.1l-4.8-4.8h-0.1h-5.7l-24.3-24.3c0,0,0,0-0.1,0h-5.7c-0.1,0-0.1,0-0.1,0.1v2.2v0.1
			l22,22h-1.6L105.3,7.6h-0.1H94.4c-0.1,0-0.1,0.1-0.1,0.1v2.6v0.1l26.9,26.9h-18.6c-0.1,0-0.1,0.1-0.1,0.1v2.7v0.1l1.3,1.3h6v0.7
			h-6v0.7V43l10.8,10.8h0.1h1.1l4-4v0.9l-3.4,3.4l0.9,0.9h0.1h2.7h0.1l7.8-7.8v0.9l-1.3,1.3v0.1v0.1l8.1,8.1h0.1h8.1l5,5h0.1h2.7
			c0.1,0,0.1,0,0.1-0.1l0,0v-0.1L138,49.7h12.2l2.7,2.7l6,0.1l0.1,2.3l2.2-1.9v-5.3L155.7,42.1z M159.2,49.2l-0.4-0.4v-0.5l-1.1,0.1
			c0,0,0,0-0.1,0l-0.8-0.8l0.5-0.7l0,0l-1.4-1.4h0.7l2.6,2.6C159.2,47.9,159.2,49.2,159.2,49.2z"/>
	</g>
</g>
</svg>
